<?xml version="1.0" encoding="utf-8"?>
<!-- Generator: Adobe Illustrator 25.0.1, SVG Export Plug-In . SVG Version: 6.00 Build 0)  -->
<svg version="1.1" id="Layer_3" xmlns="http://www.w3.org/2000/svg" xmlns:xlink="http://www.w3.org/1999/xlink" x="0px" y="0px"
	 viewBox="0 0 432 432" style="enable-background:new 0 0 432 432;" xml:space="preserve">
<path d="M150.7,63c0,3.2-2.6,5.7-5.7,5.7s-5.7-2.6-5.7-5.7s2.6-5.7,5.7-5.7S150.7,59.9,150.7,63z M69.9,182.7
	c-1.6,2.7-0.6,6.2,2.1,7.8c2.7,1.6,6.2,0.6,7.8-2.1c1.6-2.7,0.6-6.2-2.1-7.8C74.9,179,71.5,179.9,69.9,182.7z M140.9,310.4
	c1.6,2.7,5.1,3.7,7.8,2.1s3.7-5.1,2.1-7.8c-1.6-2.7-5.1-3.7-7.8-2.1C140.2,304.2,139.3,307.7,140.9,310.4z M287,312.8
	c3.2,0,5.7-2.6,5.7-5.7c0-3.2-2.6-5.7-5.7-5.7c-3.2,0-5.7,2.6-5.7,5.7C281.3,310.2,283.8,312.8,287,312.8z M362.1,187.5
	c1.6-2.7,0.6-6.2-2.1-7.8c-2.7-1.6-6.2-0.6-7.8,2.1c-1.6,2.7-0.6,6.2,2.1,7.8C357.1,191.1,360.5,190.2,362.1,187.5z M291.1,59.7
	c-1.6-2.7-5.1-3.7-7.8-2.1c-2.7,1.6-3.7,5.1-2.1,7.8s5.1,3.7,7.8,2.1S292.7,62.4,291.1,59.7z M163.1,85.6c-4.8,0-8.6,3.9-8.6,8.6
	c0,4.8,3.9,8.6,8.6,8.6s8.6-3.9,8.6-8.6C171.8,89.5,167.9,85.6,163.1,85.6z M103.4,181.1c-2.4,4.1-1,9.4,3.2,11.8s9.4,1,11.8-3.2
	s1-9.4-3.2-11.8C111.1,175.6,105.8,177,103.4,181.1z M156.3,280.6c2.4,4.1,7.7,5.6,11.8,3.2c4.1-2.4,5.6-7.7,3.2-11.8
	c-2.4-4.1-7.7-5.6-11.8-3.2S153.9,276.4,156.3,280.6z M268.9,284.5c4.8,0,8.6-3.9,8.6-8.6s-3.9-8.6-8.6-8.6s-8.6,3.9-8.6,8.6
	S264.1,284.5,268.9,284.5z M328.6,189c2.4-4.1,1-9.4-3.2-11.8s-9.4-1-11.8,3.2s-1,9.4,3.2,11.8C320.9,194.5,326.2,193.1,328.6,189z
	 M275.7,89.5c-2.4-4.1-7.7-5.6-11.8-3.2c-4.1,2.4-5.6,7.7-3.2,11.8s7.7,5.6,11.8,3.2C276.7,99,278.1,93.7,275.7,89.5z M222,53.2
	c-2.1-3.6-6.6-4.8-10.2-2.7c-3.6,2.1-4.8,6.6-2.7,10.2c2.1,3.6,6.6,4.8,10.2,2.7C222.9,61.3,224.1,56.7,222,53.2z M104.8,113.9
	c-4.1,0-7.4,3.3-7.4,7.4s3.3,7.4,7.4,7.4c4.1,0,7.4-3.3,7.4-7.4S108.9,113.9,104.8,113.9z M98.8,245.8c-2.1,3.6-0.8,8.1,2.7,10.2
	c3.6,2.1,8.1,0.8,10.2-2.7s0.8-8.1-2.7-10.2S100.8,242.2,98.8,245.8z M210,317c2.1,3.6,6.6,4.8,10.2,2.7c3.6-2.1,4.8-6.6,2.7-10.2
	c-2.1-3.6-6.6-4.8-10.2-2.7C209.1,308.9,207.9,313.4,210,317z M327.2,256.2c4.1,0,7.4-3.3,7.4-7.4s-3.3-7.4-7.4-7.4
	s-7.4,3.3-7.4,7.4S323.1,256.2,327.2,256.2z M333.2,124.3c2.1-3.6,0.8-8.1-2.7-10.2c-3.6-2.1-8.1-0.8-10.2,2.7
	c-2.1,3.6-0.8,8.1,2.7,10.2S331.2,127.9,333.2,124.3z M215.7,92.8c-6.3,0-11.4,5.1-11.4,11.4s5.1,11.4,11.4,11.4s11.4-5.1,11.4-11.4
	S222,92.8,215.7,92.8z M136,139.2c-3.1,5.4-1.3,12.4,4.2,15.5c5.4,3.1,12.4,1.3,15.5-4.2c3.1-5.4,1.3-12.4-4.2-15.5
	C146.1,131.9,139.1,133.7,136,139.2z M136.3,231.4c3.1,5.4,10.1,7.3,15.5,4.2c5.4-3.1,7.3-10.1,4.2-15.5c-3.1-5.4-10.1-7.3-15.5-4.2
	C135,219,133.1,226,136.3,231.4z M216.3,277.3c6.3,0,11.4-5.1,11.4-11.4c0-6.3-5.1-11.4-11.4-11.4s-11.4,5.1-11.4,11.4
	C204.9,272.2,210,277.3,216.3,277.3z M296,230.9c3.1-5.4,1.3-12.4-4.2-15.5s-12.4-1.3-15.5,4.2s-1.3,12.4,4.2,15.5
	C285.9,238.2,292.9,236.4,296,230.9z M295.7,138.7c-3.1-5.4-10.1-7.3-15.5-4.2c-5.4,3.1-7.3,10.1-4.2,15.5
	c3.1,5.4,10.1,7.3,15.5,4.2C297,151.1,298.9,144.1,295.7,138.7z M239.3,125.7c-10.5,0-19,8.5-19,19c0,10.5,8.5,19,19,19
	s19-8.5,19-19C258.3,134.2,249.8,125.7,239.3,125.7z M176.3,135.2c-5.2,9.1-2.1,20.7,6.9,25.9c9.1,5.2,20.7,2.1,25.9-6.9
	s2.1-20.7-6.9-25.9C193.1,123,181.5,126.1,176.3,135.2z M152.9,194.5c5.2,9.1,16.8,12.2,25.9,6.9c9.1-5.2,12.2-16.8,6.9-25.9
	c-5.2-9.1-16.8-12.2-25.9-6.9S147.7,185.5,152.9,194.5z M192.7,244.4c10.5,0,19-8.5,19-19c0-10.5-8.5-19-19-19s-19,8.5-19,19
	C173.7,235.9,182.2,244.4,192.7,244.4z M255.7,235c5.2-9.1,2.1-20.7-6.9-25.9c-9.1-5.2-20.7-2.1-25.9,6.9s-2.1,20.7,6.9,25.9
	C238.9,247.1,250.5,244,255.7,235z M279.1,175.6c-5.2-9.1-16.8-12.2-25.9-6.9s-12.2,16.8-6.9,25.9s16.8,12.2,25.9,6.9
	C281.2,196.3,284.3,184.7,279.1,175.6z M114.7,377.1l-5.3-5.3c-3,2.7-5.6,4.4-9.9,4.4c-6.5,0-11-5.4-11-11.9v-0.1
	c0-6.5,4.6-11.8,11-11.8c3.8,0,6.8,1.6,9.7,4.3l5.3-6.1c-3.5-3.5-7.8-5.8-14.9-5.8c-11.6,0-19.7,8.8-19.7,19.5v0.1
	c0,10.9,8.3,19.4,19.4,19.4C106.5,383.9,110.8,381.3,114.7,377.1z M156.3,383.2l-16.2-38.1h-7.7l-16.2,38.1h8.5l3.5-8.5h16l3.5,8.5
	H156.3z M141.1,367.4h-10l5-12.3L141.1,367.4z M192.8,383.2l-9.2-13.5c4.8-1.8,8.1-5.6,8.1-11.7v-0.1c0-7.8-5.3-12.5-14.3-12.5
	h-17.3v37.8h8.3v-12.1h6.5l8.1,12.1H192.8z M183.2,358.4c0,3.2-2.3,5.3-6.4,5.3h-8.4v-10.9h8.3c4.1,0,6.5,1.8,6.5,5.4V358.4z
	 M233.3,364.3v-0.1c0-10.6-8.2-18.8-20.1-18.8h-14.7v37.8h14.7C225.1,383.2,233.3,375,233.3,364.3z M224.6,364.4
	c0,6.7-4.6,11.3-11.4,11.3h-6.4v-22.8h6.4c6.8,0,11.4,4.7,11.4,11.4V364.4z M275.2,383.2L259,345.2h-7.7l-16.2,38.1h8.5l3.5-8.5h16
	l3.5,8.5H275.2z M260,367.4h-10l5-12.3L260,367.4z M312.8,383.2v-37.8h-8.2v23.3l-17.7-23.3h-7.7v37.8h8.2v-24l18.3,24H312.8z
	 M359.1,364.3v-0.1c0-10.7-8.4-19.4-20-19.4c-11.7,0-20.1,8.8-20.1,19.5v0.1c0,10.7,8.4,19.4,20,19.4S359.1,375.1,359.1,364.3z
	 M350.4,364.4c0,6.5-4.6,11.8-11.3,11.8c-6.7,0-11.4-5.4-11.4-11.9v-0.1c0-6.5,4.6-11.8,11.3-11.8s11.4,5.4,11.4,11.9V364.4z"/>
</svg>
